<?xml version="1.0" standalone="no"?>
<!DOCTYPE svg PUBLIC "-//W3C//DTD SVG 20010904//EN"
 "http://www.w3.org/TR/2001/REC-SVG-20010904/DTD/svg10.dtd">
<svg version="1.0" xmlns="http://www.w3.org/2000/svg"
 width="50.000000pt" height="50.000000pt" viewBox="0 0 50.000000 50.000000"
 preserveAspectRatio="xMidYMid meet">

<g transform="translate(0.000000,50.000000) scale(0.100000,-0.100000)"
fill="#000000" stroke="none">
<path d="M198 493 c6 -2 18 -2 25 0 6 3 1 5 -13 5 -14 0 -19 -2 -12 -5z"/>
<path d="M278 493 c6 -2 18 -2 25 0 6 3 1 5 -13 5 -14 0 -19 -2 -12 -5z"/>
<path d="M125 470 c-3 -6 1 -7 9 -4 18 7 21 14 7 14 -6 0 -13 -4 -16 -10z"/>
<path d="M69 423 l-34 -38 38 34 c20 19 37 36 37 38 0 8 -8 0 -41 -34z"/>
<path d="M420 425 c19 -22 39 -44 44 -50 5 -5 4 -1 -2 10 -6 11 -25 33 -44 50
l-33 30 35 -40z"/>
<path d="M14 345 c-18 -45 -18 -143 1 -189 22 -52 78 -111 130 -135 25 -12 49
-21 55 -21 11 0 14 99 4 149 -6 26 -11 31 -35 31 -26 0 -29 3 -29 35 0 32 3
35 29 35 27 0 29 3 32 43 l4 43 -85 -1 c-47 -1 -88 0 -93 2 -4 2 -2 13 3 24 6
10 8 19 5 19 -3 0 -13 -16 -21 -35z"/>
<path d="M469 351 c-4 -10 -25 -15 -74 -18 -90 -3 -95 -6 -95 -48 0 -32 2 -35
30 -35 31 0 34 -7 24 -47 -4 -15 -14 -23 -29 -23 -27 0 -35 -29 -35 -122 0
-65 -3 -63 66 -37 76 28 144 137 143 229 0 57 -21 127 -30 101z"/>
</g>
</svg>
